<?xml version="1.0" standalone="no"?>
<!DOCTYPE svg PUBLIC "-//W3C//DTD SVG 20010904//EN"
 "http://www.w3.org/TR/2001/REC-SVG-20010904/DTD/svg10.dtd">
<svg version="1.0" xmlns="http://www.w3.org/2000/svg"
 width="230.000000pt" height="230.000000pt" viewBox="0 0 230.000000 230.000000"
 preserveAspectRatio="xMidYMid meet">
<metadata>
Created by potrace 1.11, written by Peter Selinger 2001-2013
</metadata>
<g transform="translate(0.000000,230.000000) scale(0.100000,-0.100000)"
fill="#000000" stroke="none">
<path d="M93 2273 c-17 -10 -42 -31 -55 -48 l-23 -30 -3 -1030 c-1 -566 0
-1045 3 -1063 4 -20 21 -48 41 -68 34 -32 39 -34 106 -34 l70 0 464 464 464
464 464 -464 464 -464 70 0 c66 0 73 2 106 34 l36 33 0 1062 c0 782 -3 1068
-12 1084 -31 59 -86 84 -160 72 -39 -7 -74 -40 -501 -466 -253 -253 -463 -459
-467 -459 -5 0 -210 201 -458 448 -247 246 -457 453 -467 461 -28 22 -105 24
-142 4z m553 -831 l302 -302 -303 -303 c-166 -166 -310 -309 -319 -316 -15
-12 -16 38 -16 619 0 589 1 632 17 619 9 -8 152 -150 319 -317z m1364 -302 c0
-346 -2 -630 -4 -630 -2 0 -146 142 -319 315 l-315 315 312 314 c171 173 314
314 319 315 4 1 7 -282 7 -629z"/>
</g>
</svg>
